<svg xmlns="http://www.w3.org/2000/svg" viewBox="0 0 97.58 16.94"><title>Asset 4</title><g id="Layer_2" data-name="Layer 2"><g id="Layer_1-2" data-name="Layer 1"><path d="M6,14.42v2.52H17V0H0V16.94H4.52V2.52H6v5C6,8.82,6.6,9.9,8,9.9a2.25,2.25,0,0,0,2-1.41,2.22,2.22,0,0,0,.14-.79V2.52h1.52V8.65c0,.92.19,1.29.8,1.32l-.12,1.12a1.56,1.56,0,0,1-.52.07c-.75,0-1.37-.42-1.5-1.5h-.06a2.75,2.75,0,0,1-2.42,1.46A2,2,0,0,1,6,10.2v1.05" style="fill:#439fd8"/><path d="M26.73,4.41,24.58,11h0l-2-6.55H20.05V13h1.62V9c0-.46,0-1.37-.11-2.74h.05L23.67,13h1.67l2.21-6.71h.05c-.05,1.08-.08,1.74-.08,2s0,.48,0,.67V13H29.2V4.41Z" style="fill:#231f20"/><path d="M36.76,6.86a3.12,3.12,0,0,0-2-.57,5.28,5.28,0,0,0-2.51.59l.6,1.2a4.7,4.7,0,0,1,1.84-.47.89.89,0,0,1,1,1v.28l-1.14,0a4.19,4.19,0,0,0-2.2.55A1.73,1.73,0,0,0,31.63,11a2.08,2.08,0,0,0,.54,1.54,2,2,0,0,0,1.48.54,3,3,0,0,0,1.25-.22,2.65,2.65,0,0,0,.93-.79h0l.35.89h1.25V8.61A2.13,2.13,0,0,0,36.76,6.86Zm-1.07,3.62a1.22,1.22,0,0,1-.37.94,1.37,1.37,0,0,1-1,.36q-.87,0-.87-.75a.89.89,0,0,1,.38-.79A2.26,2.26,0,0,1,35,10l.69,0Z" style="fill:#231f20"/><path d="M45.6,6.92a2.25,2.25,0,0,0-1.73-.62,2.81,2.81,0,0,0-1.19.24,1.88,1.88,0,0,0-.83.72h-.1l-.24-.84H40.15V13h1.78V9.89a3.12,3.12,0,0,1,.34-1.66,1.18,1.18,0,0,1,1.08-.5.94.94,0,0,1,.81.35,1.92,1.92,0,0,1,.25,1.07V13h1.78V8.7A2.44,2.44,0,0,0,45.6,6.92Z" style="fill:#231f20"/><path d="M51.69,11.64c-.93,0-1.39-.64-1.39-1.92s.46-2,1.39-2a2.64,2.64,0,0,1,.73.11,6.81,6.81,0,0,1,.78.28l.53-1.39a4.63,4.63,0,0,0-2-.44,3.1,3.1,0,0,0-2.38.88,3.56,3.56,0,0,0-.83,2.55c0,2.24,1,3.36,3.05,3.36A4.91,4.91,0,0,0,52.65,13a2.7,2.7,0,0,0,.88-.38V11.07a3.4,3.4,0,0,1-.88.43A3,3,0,0,1,51.69,11.64Z" style="fill:#231f20"/><path d="M61.33,6.92a2.29,2.29,0,0,0-1.75-.62,2.07,2.07,0,0,0-1.9,1h-.09l0-.53c0-.53,0-.87,0-1V3.85H55.88V13h1.79V9.89A3.14,3.14,0,0,1,58,8.24a1.22,1.22,0,0,1,1.09-.51c.7,0,1,.47,1,1.42V13h1.79V8.7A2.46,2.46,0,0,0,61.33,6.92Z" style="fill:#231f20"/><path d="M70.25,9.27a3,3,0,0,0-.78-2.18,2.85,2.85,0,0,0-2.16-.79A2.9,2.9,0,0,0,65,7.2a3.63,3.63,0,0,0-.83,2.54,3.34,3.34,0,0,0,.89,2.48,3.41,3.41,0,0,0,2.48.87,6.06,6.06,0,0,0,1.3-.12,4.21,4.21,0,0,0,1-.34V11.24a6.15,6.15,0,0,1-1.1.4,5.06,5.06,0,0,1-1.12.12,1.6,1.6,0,0,1-1.19-.43A1.72,1.72,0,0,1,66,10.14h4.23ZM66.06,9a1.69,1.69,0,0,1,.37-1,1.14,1.14,0,0,1,.89-.36,1.2,1.2,0,0,1,.91.36,1.51,1.51,0,0,1,.34,1Z" style="fill:#231f20"/><path d="M76.94,10.19a1.63,1.63,0,0,0-.53-.62A4.69,4.69,0,0,0,75.29,9a7.45,7.45,0,0,1-1.12-.52.51.51,0,0,1-.25-.42c0-.29.26-.43.79-.43a2.83,2.83,0,0,1,.87.14,9.7,9.7,0,0,1,.92.34L77,6.81a5.49,5.49,0,0,0-2.3-.51,3.28,3.28,0,0,0-1.92.48,1.54,1.54,0,0,0-.68,1.35A2.11,2.11,0,0,0,72.3,9a1.6,1.6,0,0,0,.52.62,5.16,5.16,0,0,0,1.11.59q.52.22.84.39a1.92,1.92,0,0,1,.45.3.48.48,0,0,1,.13.34c0,.37-.33.56-1,.56a4.28,4.28,0,0,1-1.09-.16,5.76,5.76,0,0,1-1.13-.39v1.48a4.76,4.76,0,0,0,.95.28,6.06,6.06,0,0,0,1.22.1,3.46,3.46,0,0,0,2.09-.53,1.79,1.79,0,0,0,.7-1.53A1.93,1.93,0,0,0,76.94,10.19Z" style="fill:#231f20"/><path d="M82.1,11.66a.84.84,0,0,1-.56-.18.7.7,0,0,1-.21-.56V7.76h1.83V6.42H81.33V5H80.18l-.51,1.38-1,.6v.75h.86v3.16A2.35,2.35,0,0,0,80,12.55a2,2,0,0,0,1.56.54,4,4,0,0,0,1.64-.3V11.46A3.74,3.74,0,0,1,82.1,11.66Z" style="fill:#231f20"/><path d="M91,9.27a3,3,0,0,0-.77-2.18A2.89,2.89,0,0,0,88.1,6.3a2.94,2.94,0,0,0-2.28.9A3.63,3.63,0,0,0,85,9.74a3.31,3.31,0,0,0,.89,2.48,3.37,3.37,0,0,0,2.47.87,6.06,6.06,0,0,0,1.3-.12,4.07,4.07,0,0,0,1-.34V11.24a6.15,6.15,0,0,1-1.1.4,5,5,0,0,1-1.12.12,1.56,1.56,0,0,1-1.18-.43,1.72,1.72,0,0,1-.45-1.19H91ZM86.85,9a1.63,1.63,0,0,1,.37-1,1.12,1.12,0,0,1,.89-.36,1.16,1.16,0,0,1,.9.36,1.51,1.51,0,0,1,.35,1Z" style="fill:#231f20"/><path d="M97,6.3a2.07,2.07,0,0,0-1.13.33,2.59,2.59,0,0,0-.82.89h-.09l-.26-1.1H93.32V13h1.79V9.64a1.58,1.58,0,0,1,.48-1.23A1.86,1.86,0,0,1,96.92,8a2,2,0,0,1,.53.06l.13-1.68A3.28,3.28,0,0,0,97,6.3Z" style="fill:#231f20"/></g></g></svg>